<svg width="522" height="149" viewBox="0 0 522 149" fill="none" xmlns="http://www.w3.org/2000/svg">
<path d="M64.2 97.92C64.2 100.96 64.36 103.44 64.68 105.36C65.08 107.2 65.88 108.64 67.08 109.68C68.28 110.64 69.96 111.32 72.12 111.72C74.36 112.12 77.28 112.36 80.88 112.44V117H38.4V112.44C41.2 112.36 43.44 112.12 45.12 111.72C46.88 111.32 48.24 110.64 49.2 109.68C50.16 108.72 50.8 107.36 51.12 105.6C51.44 103.84 51.6 101.56 51.6 98.76V42.84C51.6 40.04 51.44 37.8 51.12 36.12C50.88 34.36 50.32 33 49.44 32.04C48.64 31 47.44 30.32 45.84 30C44.24 29.6 42.16 29.32 39.6 29.16V24.6H108.96L110.28 47.52H106.08C105.6 44.08 104.84 41.28 103.8 39.12C102.76 36.88 101.28 35.12 99.36 33.84C97.52 32.56 95.16 31.68 92.28 31.2C89.4 30.64 85.8 30.36 81.48 30.36H66.24C64.88 30.36 64.2 31.04 64.2 32.4V68.64C68.04 68.64 71.32 68.44 74.04 68.04C76.84 67.56 79.12 66.76 80.88 65.64C82.72 64.52 84.12 63 85.08 61.08C86.04 59.16 86.64 56.68 86.88 53.64H91.08V88.8H86.88C86.48 85.76 85.84 83.24 84.96 81.24C84.08 79.24 82.76 77.68 81 76.56C79.32 75.44 77.12 74.64 74.4 74.16C71.68 73.68 68.28 73.44 64.2 73.44V97.92ZM147.469 52.2C152.029 52.2 156.349 53.04 160.429 54.72C164.509 56.32 168.069 58.56 171.109 61.44C174.229 64.32 176.669 67.76 178.429 71.76C180.269 75.68 181.189 80 181.189 84.72C181.189 89.6 180.269 94.08 178.429 98.16C176.669 102.24 174.229 105.76 171.109 108.72C168.069 111.68 164.509 114 160.429 115.68C156.349 117.36 152.029 118.2 147.469 118.2C142.989 118.2 138.709 117.4 134.629 115.8C130.629 114.12 127.109 111.8 124.069 108.84C121.029 105.88 118.629 102.36 116.869 98.28C115.109 94.12 114.229 89.6 114.229 84.72C114.229 80 115.109 75.64 116.869 71.64C118.629 67.64 121.029 64.2 124.069 61.32C127.109 58.44 130.629 56.2 134.629 54.6C138.709 53 142.989 52.2 147.469 52.2ZM147.469 57.96C144.509 57.96 141.789 58.6 139.309 59.88C136.909 61.16 134.829 63 133.069 65.4C131.389 67.72 130.069 70.56 129.109 73.92C128.229 77.2 127.789 80.84 127.789 84.84C127.789 89 128.229 92.76 129.109 96.12C130.069 99.48 131.389 102.36 133.069 104.76C134.829 107.08 136.909 108.88 139.309 110.16C141.709 111.44 144.429 112.08 147.469 112.08C150.509 112.08 153.269 111.44 155.749 110.16C158.229 108.88 160.349 107.04 162.109 104.64C163.869 102.24 165.229 99.36 166.189 96C167.149 92.64 167.629 88.92 167.629 84.84C167.629 80.84 167.149 77.2 166.189 73.92C165.229 70.64 163.869 67.84 162.109 65.52C160.349 63.12 158.229 61.28 155.749 60C153.269 58.64 150.509 57.96 147.469 57.96ZM213.624 97.92C213.624 101.2 213.704 103.8 213.864 105.72C214.024 107.64 214.424 109.12 215.064 110.16C215.784 111.12 216.784 111.76 218.064 112.08C219.344 112.4 221.144 112.64 223.464 112.8V117H191.544V112.8C193.864 112.72 195.704 112.52 197.064 112.2C198.424 111.8 199.464 111.12 200.184 110.16C200.904 109.2 201.344 107.84 201.504 106.08C201.744 104.24 201.864 101.8 201.864 98.76V84.72C201.864 79.28 201.784 75.04 201.624 72C201.544 68.96 201.144 66.72 200.424 65.28C199.784 63.84 198.744 63 197.304 62.76C195.864 62.44 193.864 62.28 191.304 62.28V58.08L212.304 53.52L213.984 68.4H214.464C215.504 66 216.784 63.8 218.304 61.8C219.904 59.8 221.624 58.12 223.464 56.76C225.304 55.32 227.224 54.2 229.224 53.4C231.224 52.6 233.264 52.2 235.344 52.2C237.904 52.2 239.904 52.84 241.344 54.12C242.864 55.32 243.624 56.96 243.624 59.04C243.624 60.96 243.024 62.48 241.824 63.6C240.624 64.64 238.904 65.16 236.664 65.16C235.384 65.16 234.304 65 233.424 64.68C232.544 64.36 231.744 64.04 231.024 63.72C230.384 63.32 229.744 62.96 229.104 62.64C228.544 62.32 227.904 62.16 227.184 62.16C225.024 62.16 222.864 63.56 220.704 66.36C218.544 69.08 216.864 72.56 215.664 76.8C215.024 79.12 214.504 81.76 214.104 84.72C213.784 87.6 213.624 90.64 213.624 93.84V97.92ZM248.972 60.96V56.52C253.212 54.04 256.532 51.56 258.932 49.08C261.332 46.6 263.172 43.64 264.452 40.2H267.932V55.32H284.012V60.96H267.932V97.44C267.932 100.24 268.052 102.6 268.292 104.52C268.612 106.44 269.092 108 269.732 109.2C270.372 110.32 271.212 111.12 272.252 111.6C273.292 112.08 274.612 112.32 276.212 112.32C278.212 112.32 279.892 111.92 281.252 111.12C282.692 110.24 284.092 108.8 285.452 106.8L288.452 109.08C287.332 112.04 285.372 114.32 282.572 115.92C279.852 117.44 276.452 118.2 272.372 118.2C267.092 118.2 263.052 116.96 260.252 114.48C257.532 111.92 256.172 108.28 256.172 103.56V60.96H248.972ZM345.083 72.6C345.083 69.32 345.003 66.76 344.843 64.92C344.683 63 344.243 61.56 343.523 60.6C342.883 59.56 341.883 58.88 340.523 58.56C339.243 58.16 337.443 57.84 335.123 57.6V53.4H356.843V90.24C356.843 94.8 356.883 98.52 356.963 101.4C357.123 104.28 357.323 106.44 357.563 107.88C357.723 108.92 357.963 109.76 358.283 110.4C358.683 110.96 359.243 111.44 359.963 111.84C360.683 112.16 361.603 112.4 362.723 112.56C363.923 112.64 365.443 112.68 367.283 112.68V116.88L347.483 118.32L346.163 103.92H345.683C342.643 108.88 339.123 112.52 335.123 114.84C331.203 117.08 327.083 118.2 322.763 118.2C319.403 118.2 316.123 117.56 312.923 116.28C309.803 115 307.443 113.28 305.843 111.12C304.483 109.36 303.483 106.92 302.843 103.8C302.283 100.68 302.003 96.64 302.003 91.68V72.6C302.003 69.32 301.923 66.76 301.763 64.92C301.603 63 301.163 61.56 300.443 60.6C299.803 59.56 298.803 58.88 297.443 58.56C296.163 58.16 294.363 57.84 292.043 57.6V53.4H313.763V86.16C313.763 94.88 314.763 101.2 316.763 105.12C318.843 109.04 322.123 111 326.603 111C333.643 111 339.123 106.4 343.043 97.2C343.443 96.24 343.763 95.36 344.003 94.56C344.243 93.76 344.443 92.88 344.603 91.92C344.763 90.96 344.883 89.88 344.963 88.68C345.043 87.48 345.083 86.04 345.083 84.36V72.6ZM395.834 98.16C395.834 101.44 395.914 104.04 396.074 105.96C396.234 107.8 396.634 109.24 397.274 110.28C397.994 111.24 398.994 111.88 400.274 112.2C401.634 112.52 403.474 112.76 405.794 112.92V117H374.354V112.92C376.594 112.76 378.354 112.52 379.634 112.2C380.994 111.88 382.034 111.24 382.754 110.28C383.474 109.32 383.914 107.96 384.074 106.2C384.314 104.44 384.434 102.04 384.434 99V83.04C384.434 73.52 384.194 67.72 383.714 65.64C383.474 64.6 383.154 63.76 382.754 63.12C382.434 62.4 381.914 61.88 381.194 61.56C380.474 61.16 379.554 60.92 378.434 60.84C377.314 60.68 375.874 60.6 374.114 60.6V56.76L393.314 52.2L394.754 64.08H395.234C398.274 60.32 401.834 57.4 405.914 55.32C409.994 53.24 414.434 52.2 419.234 52.2C422.914 52.2 426.274 52.8 429.314 54C432.354 55.2 434.674 56.84 436.274 58.92C437.634 60.76 438.594 63.16 439.154 66.12C439.714 69 439.994 73 439.994 78.12V98.16C439.994 101.44 440.074 104.04 440.234 105.96C440.474 107.8 440.914 109.24 441.554 110.28C442.194 111.24 443.154 111.88 444.434 112.2C445.794 112.52 447.554 112.76 449.714 112.92V117H418.634V112.92C420.874 112.84 422.634 112.64 423.914 112.32C425.274 111.92 426.274 111.24 426.914 110.28C427.634 109.32 428.074 107.96 428.234 106.2C428.474 104.36 428.594 101.96 428.594 99V83.16C428.594 78.6 428.354 74.76 427.874 71.64C427.394 68.52 426.594 66 425.474 64.08C424.434 62.16 423.034 60.8 421.274 60C419.514 59.12 417.394 58.68 414.914 58.68C411.314 58.68 407.994 59.64 404.954 61.56C401.994 63.4 399.674 65.96 397.994 69.24C397.594 70.04 397.234 70.8 396.914 71.52C396.674 72.24 396.474 73.08 396.314 74.04C396.154 75 396.034 76.12 395.954 77.4C395.874 78.6 395.834 80.16 395.834 82.08V98.16ZM515.288 105.84C508.488 114.08 500.048 118.2 489.968 118.2C485.248 118.2 480.968 117.44 477.128 115.92C473.288 114.32 469.968 112.12 467.168 109.32C464.448 106.44 462.328 103.04 460.808 99.12C459.288 95.12 458.528 90.72 458.528 85.92C458.528 81.04 459.328 76.52 460.928 72.36C462.528 68.2 464.768 64.64 467.648 61.68C470.608 58.72 474.088 56.4 478.088 54.72C482.168 53.04 486.608 52.2 491.408 52.2C499.168 52.2 505.168 54.32 509.408 58.56C513.648 62.72 515.768 68.72 515.768 76.56C515.768 77.68 515.528 78.36 515.048 78.6C514.648 78.84 513.648 78.96 512.048 78.96H472.568C472.408 79.6 472.288 80.4 472.208 81.36C472.128 82.24 472.088 83.24 472.088 84.36C472.088 88.52 472.568 92.32 473.528 95.76C474.568 99.12 476.008 102 477.848 104.4C479.768 106.8 482.008 108.68 484.568 110.04C487.208 111.32 490.128 111.96 493.328 111.96C496.688 111.96 499.808 111.24 502.688 109.8C505.568 108.28 508.528 105.84 511.568 102.48L515.288 105.84ZM495.488 73.44C497.088 73.44 498.368 73.4 499.328 73.32C500.288 73.24 501.008 73.08 501.488 72.84C501.968 72.6 502.288 72.28 502.448 71.88C502.608 71.4 502.688 70.8 502.688 70.08C502.688 66.4 501.488 63.48 499.088 61.32C496.768 59.08 493.568 57.96 489.488 57.96C480.848 57.96 475.488 63.12 473.408 73.44H495.488Z" fill="black"/>
<path d="M30.4316 84.1602H1.36035V79.3057L2.33398 79.2803C4.16651 79.2333 5.57742 79.0924 6.5918 78.874C7.63746 78.6113 8.30821 78.2455 8.70898 77.8447C9.1604 77.3932 9.49264 76.753 9.65625 75.8535L9.65918 75.8359L9.66309 75.8193C9.88245 74.8101 9.99998 73.4956 10 71.8564V45.7197C10 42.9406 9.97639 40.6459 9.92871 38.834L9.92773 38.8213V38.8076C9.92773 37.9106 9.90445 37.1837 9.85938 36.6201C9.81284 36.0384 9.74766 35.6933 9.69141 35.5244L9.68262 35.498L9.6748 35.4707C9.52023 34.9046 9.09238 34.446 7.9502 34.249L7.94434 34.248C6.69084 34.0242 4.72329 33.9043 2 33.9043H1V29.0605L1.96289 29.0244C3.2388 28.9772 4.71053 28.8823 6.37891 28.7393C8.09059 28.5489 9.82623 28.3345 11.5859 28.0967C13.3911 27.8114 15.1485 27.5022 16.8574 27.1699C18.5541 26.84 20.0225 26.4668 21.2676 26.0518L22.584 25.6123V71.3516C22.584 73.1872 22.6538 74.6438 22.7881 75.7344C22.9569 76.6927 23.2562 77.3959 23.6396 77.8984C24.0528 78.3347 24.6461 78.6747 25.4873 78.875C26.4527 79.0934 27.7692 79.2333 29.46 79.2803L30.4316 79.3076V84.1602Z" fill="black" stroke="black" stroke-width="2"/>
</svg>
